# xmcd
#
# Track frame offsets:
#	150
#	12507
#	25330
#	40970
#	53110
#	65365
#	77567
#	91665
#	103985
#	116332
#	136267
#	149425
#
# Disc length: 2254
#
# Revision: 1
# Processed by: cddbd v1.5.1PL0 Copyright (c) Steve Scherf et al.
# Submitted via: ExactAudioCopy v0.90a11
# Normalized: r0:DSETVAR1,TDELIM( - )
#
DISCID=9c08cc0c
DTITLE=Various Artist - Feeling blues
DYEAR=1900
DGENRE=
TTITLE0=Louis Jordan and His tympany five - Choo choo ch'boogie
TTITLE1=Amos Milburn - Chicken-shack boogie
TTITLE2=Bessie Smith - Down hearted blues
TTITLE3=Robert Johnson - Cross road blues
TTITLE4=Johnny Otis - Willie and the hand jive
TTITLE5=Wyonie Harris - Good rockin' tonight
TTITLE6=Leroy Carr - Midnight hour blues
TTITLE7=Muddy Waters - I can't be satisfied
TTITLE8=John Lee Hooker - I'm in the mood
TTITLE9=Joe Turner - Nothin' from nothin' blues
TTITLE10=T-Bone Walker - Mean old world
TTITLE11=Inga Rumpf - Still got the blues
EXTD=
EXTT0=
EXTT1=
EXTT2=
EXTT3=
EXTT4=
EXTT5=
EXTT6=
EXTT7=
EXTT8=
EXTT9=
EXTT10=
EXTT11=
PLAYORDER=
